<svg xmlns="http://www.w3.org/2000/svg" width="900" height="540" viewBox="0 0 900 540">
  <defs>
    <linearGradient id="bg" x1="0" y1="0" x2="1" y2="1">
      <stop offset="0" stop-color="#0b0f17"/>
      <stop offset="1" stop-color="#111827"/>
    </linearGradient>
  </defs>
  <rect width="900" height="540" fill="url(#bg)"/>
  <rect x="90" y="60" width="720" height="420" rx="22" fill="#ffffff"/>
  <rect x="150" y="96" width="420" height="18" rx="9" fill="#111827" opacity="0.85"/>
  <rect x="150" y="124" width="260" height="10" rx="5" fill="#6b7280" opacity="0.65"/>
  <rect x="150" y="166" width="600" height="34" rx="10" fill="#f3f4f6"/>
  <rect x="170" y="178" width="180" height="10" rx="5" fill="#111827" opacity="0.75"/>
  <rect x="150" y="224" width="600" height="34" rx="10" fill="#f3f4f6"/>
  <rect x="170" y="236" width="220" height="10" rx="5" fill="#111827" opacity="0.75"/>
  <rect x="150" y="280" width="600" height="34" rx="10" fill="#f3f4f6"/>
  <rect x="170" y="292" width="140" height="10" rx="5" fill="#111827" opacity="0.75"/>
  <g opacity="0.6">
    <rect x="150" y="338" width="520" height="10" rx="5" fill="#9ca3af"/>
    <rect x="150" y="356" width="560" height="10" rx="5" fill="#9ca3af"/>
    <rect x="150" y="374" width="500" height="10" rx="5" fill="#9ca3af"/>
    <rect x="150" y="392" width="540" height="10" rx="5" fill="#9ca3af"/>
  </g>
</svg>

