<svg xmlns="http://www.w3.org/2000/svg" width="900" height="540" viewBox="0 0 900 540">
  <defs>
    <linearGradient id="bg" x1="0" y1="0" x2="1" y2="1">
      <stop offset="0" stop-color="#0b0f17"/>
      <stop offset="1" stop-color="#111827"/>
    </linearGradient>
  </defs>
  <rect width="900" height="540" fill="url(#bg)"/>
  <rect x="90" y="60" width="720" height="420" rx="22" fill="#ffffff"/>
  <rect x="290" y="92" width="320" height="64" rx="12" fill="#ffffff" stroke="#111827" stroke-width="2"/>
  <rect x="330" y="112" width="240" height="12" rx="6" fill="#111827" opacity="0.8"/>
  <rect x="360" y="132" width="180" height="8" rx="4" fill="#6b7280" opacity="0.7"/>

  <rect x="120" y="176" width="220" height="304" rx="16" fill="#f3f4f6"/>
  <rect x="360" y="176" width="420" height="304" rx="16" fill="#ffffff"/>

  <rect x="150" y="204" width="90" height="10" rx="5" fill="#111827" opacity="0.7"/>
  <g opacity="0.75">
    <rect x="150" y="228" width="160" height="8" rx="4" fill="#9ca3af"/>
    <rect x="150" y="246" width="150" height="8" rx="4" fill="#9ca3af"/>
    <rect x="150" y="264" width="140" height="8" rx="4" fill="#9ca3af"/>
  </g>

  <rect x="150" y="300" width="90" height="10" rx="5" fill="#111827" opacity="0.7"/>
  <g>
    <rect x="150" y="324" width="160" height="8" rx="4" fill="#9ca3af" opacity="0.9"/>
    <g transform="translate(150,340)" opacity="0.9">
      <circle cx="6" cy="6" r="4" fill="#111827"/>
      <circle cx="20" cy="6" r="4" fill="#111827"/>
      <circle cx="34" cy="6" r="4" fill="#111827"/>
      <circle cx="48" cy="6" r="4" fill="#111827"/>
      <circle cx="62" cy="6" r="4" fill="rgba(17,24,39,0.15)"/>
    </g>
    <rect x="150" y="372" width="150" height="8" rx="4" fill="#9ca3af" opacity="0.9"/>
    <g transform="translate(150,388)" opacity="0.9">
      <circle cx="6" cy="6" r="4" fill="#111827"/>
      <circle cx="20" cy="6" r="4" fill="#111827"/>
      <circle cx="34" cy="6" r="4" fill="#111827"/>
      <circle cx="48" cy="6" r="4" fill="rgba(17,24,39,0.15)"/>
      <circle cx="62" cy="6" r="4" fill="rgba(17,24,39,0.15)"/>
    </g>
  </g>

  <rect x="390" y="204" width="160" height="10" rx="5" fill="#111827" opacity="0.75"/>
  <rect x="390" y="222" width="360" height="1" fill="#e5e7eb"/>
  <g opacity="0.65">
    <rect x="390" y="240" width="330" height="10" rx="5" fill="#9ca3af"/>
    <rect x="390" y="258" width="360" height="10" rx="5" fill="#9ca3af"/>
    <rect x="390" y="276" width="310" height="10" rx="5" fill="#9ca3af"/>
  </g>
</svg>

