<svg xmlns="http://www.w3.org/2000/svg" width="900" height="540" viewBox="0 0 900 540">
  <defs>
    <linearGradient id="bg" x1="0" y1="0" x2="1" y2="1">
      <stop offset="0" stop-color="#0b0f17"/>
      <stop offset="1" stop-color="#111827"/>
    </linearGradient>
  </defs>
  <rect width="900" height="540" fill="url(#bg)"/>
  <rect x="90" y="60" width="720" height="420" rx="22" fill="#ffffff"/>
  <rect x="150" y="96" width="320" height="18" rx="9" fill="#111827" opacity="0.85"/>
  <rect x="150" y="124" width="220" height="10" rx="5" fill="#6b7280" opacity="0.65"/>
  <rect x="150" y="158" width="600" height="1" fill="#e5e7eb"/>
  <g>
    <rect x="150" y="186" width="70" height="10" rx="5" fill="#9ca3af"/>
    <rect x="240" y="182" width="320" height="12" rx="6" fill="#111827" opacity="0.8"/>
    <rect x="240" y="202" width="240" height="10" rx="5" fill="#6b7280" opacity="0.75"/>
    <rect x="240" y="220" width="470" height="10" rx="5" fill="#9ca3af" opacity="0.65"/>
    <rect x="240" y="238" width="430" height="10" rx="5" fill="#9ca3af" opacity="0.65"/>
  </g>
  <g>
    <rect x="150" y="280" width="70" height="10" rx="5" fill="#9ca3af"/>
    <rect x="240" y="276" width="300" height="12" rx="6" fill="#111827" opacity="0.8"/>
    <rect x="240" y="296" width="260" height="10" rx="5" fill="#6b7280" opacity="0.75"/>
    <rect x="240" y="314" width="460" height="10" rx="5" fill="#9ca3af" opacity="0.65"/>
    <rect x="240" y="332" width="420" height="10" rx="5" fill="#9ca3af" opacity="0.65"/>
  </g>
  <g>
    <rect x="150" y="374" width="70" height="10" rx="5" fill="#9ca3af"/>
    <rect x="240" y="370" width="280" height="12" rx="6" fill="#111827" opacity="0.8"/>
    <rect x="240" y="390" width="220" height="10" rx="5" fill="#6b7280" opacity="0.75"/>
  </g>
</svg>

