<svg xmlns="http://www.w3.org/2000/svg" width="900" height="540" viewBox="0 0 900 540">
  <defs>
    <linearGradient id="bg" x1="0" y1="0" x2="1" y2="1">
      <stop offset="0" stop-color="#0b0f17"/>
      <stop offset="1" stop-color="#111827"/>
    </linearGradient>
  </defs>
  <rect width="900" height="540" fill="url(#bg)"/>
  <rect x="90" y="60" width="720" height="420" rx="22" fill="#ffffff"/>
  <rect x="120" y="108" width="200" height="340" rx="16" fill="#faf7f2"/>
  <rect x="350" y="108" width="430" height="340" rx="16" fill="#ffffff"/>

  <rect x="150" y="136" width="90" height="10" rx="5" fill="#b08968" opacity="0.95"/>
  <g opacity="0.8">
    <rect x="150" y="160" width="140" height="8" rx="4" fill="#9ca3af"/>
    <rect x="150" y="178" width="120" height="8" rx="4" fill="#9ca3af"/>
    <rect x="150" y="210" width="90" height="10" rx="5" fill="#b08968" opacity="0.95"/>
  </g>
  <g>
    <rect x="150" y="238" width="150" height="8" rx="4" fill="#9ca3af" opacity="0.85"/>
    <g transform="translate(150,256)">
      <circle cx="6" cy="6" r="4" fill="#b08968"/>
      <circle cx="20" cy="6" r="4" fill="#b08968"/>
      <circle cx="34" cy="6" r="4" fill="#b08968"/>
      <circle cx="48" cy="6" r="4" fill="#b08968"/>
      <circle cx="62" cy="6" r="4" fill="rgba(176,137,104,0.25)"/>
    </g>
    <rect x="150" y="282" width="150" height="8" rx="4" fill="#9ca3af" opacity="0.85"/>
    <g transform="translate(150,300)">
      <circle cx="6" cy="6" r="4" fill="#b08968"/>
      <circle cx="20" cy="6" r="4" fill="#b08968"/>
      <circle cx="34" cy="6" r="4" fill="#b08968"/>
      <circle cx="48" cy="6" r="4" fill="rgba(176,137,104,0.25)"/>
      <circle cx="62" cy="6" r="4" fill="rgba(176,137,104,0.25)"/>
    </g>
  </g>

  <rect x="380" y="136" width="250" height="14" rx="7" fill="#111827" opacity="0.85"/>
  <rect x="380" y="164" width="200" height="10" rx="5" fill="#6b7280" opacity="0.7"/>
  <rect x="380" y="196" width="190" height="10" rx="5" fill="#b08968" opacity="0.95"/>
  <rect x="380" y="214" width="380" height="1" fill="#e5e7eb"/>
  <g opacity="0.65">
    <rect x="380" y="232" width="350" height="10" rx="5" fill="#9ca3af"/>
    <rect x="380" y="250" width="380" height="10" rx="5" fill="#9ca3af"/>
    <rect x="380" y="268" width="330" height="10" rx="5" fill="#9ca3af"/>
  </g>
</svg>

