<svg xmlns="http://www.w3.org/2000/svg" width="900" height="540" viewBox="0 0 900 540">
  <defs>
    <linearGradient id="bg" x1="0" y1="0" x2="1" y2="1">
      <stop offset="0" stop-color="#0b0f17"/>
      <stop offset="1" stop-color="#111827"/>
    </linearGradient>
  </defs>
  <rect width="900" height="540" fill="url(#bg)"/>
  <rect x="90" y="60" width="720" height="420" rx="22" fill="#ffffff"/>
  <rect x="120" y="108" width="450" height="340" rx="16" fill="#ffffff"/>
  <rect x="590" y="108" width="190" height="340" rx="16" fill="#0b2f4a"/>
  <rect x="150" y="136" width="260" height="16" rx="8" fill="#111827" opacity="0.85"/>
  <rect x="150" y="162" width="180" height="10" rx="5" fill="#6b7280" opacity="0.7"/>
  <rect x="150" y="194" width="170" height="10" rx="5" fill="#111827" opacity="0.75"/>
  <rect x="150" y="212" width="390" height="1" fill="#e5e7eb"/>
  <g opacity="0.65">
    <rect x="150" y="230" width="360" height="10" rx="5" fill="#9ca3af"/>
    <rect x="150" y="248" width="390" height="10" rx="5" fill="#9ca3af"/>
    <rect x="150" y="266" width="340" height="10" rx="5" fill="#9ca3af"/>
  </g>
  <rect x="610" y="136" width="90" height="10" rx="5" fill="#e2e8f0" opacity="0.9"/>
  <g opacity="0.75">
    <rect x="610" y="156" width="140" height="8" rx="4" fill="#f1f5f9"/>
    <rect x="610" y="172" width="130" height="8" rx="4" fill="#f1f5f9"/>
    <rect x="610" y="196" width="90" height="10" rx="5" fill="#e2e8f0" opacity="0.9"/>
    <rect x="610" y="218" width="150" height="2" fill="rgba(255,255,255,0.55)"/>
    <rect x="610" y="236" width="140" height="8" rx="4" fill="#f1f5f9"/>
    <rect x="610" y="258" width="150" height="2" fill="rgba(255,255,255,0.55)"/>
    <rect x="610" y="276" width="140" height="8" rx="4" fill="#f1f5f9"/>
    <rect x="610" y="298" width="150" height="2" fill="rgba(255,255,255,0.55)"/>
  </g>
</svg>

