<svg xmlns="http://www.w3.org/2000/svg" width="900" height="540" viewBox="0 0 900 540">
  <defs>
    <linearGradient id="bg" x1="0" y1="0" x2="1" y2="1">
      <stop offset="0" stop-color="#0b0f17"/>
      <stop offset="1" stop-color="#111827"/>
    </linearGradient>
  </defs>
  <rect width="900" height="540" fill="url(#bg)"/>
  <rect x="90" y="60" width="720" height="420" rx="22" fill="#ffffff"/>
  <rect x="150" y="96" width="360" height="14" rx="7" fill="#f43f5e" opacity="0.95"/>
  <rect x="150" y="120" width="260" height="10" rx="5" fill="#6b7280" opacity="0.65"/>

  <rect x="150" y="152" width="470" height="340" rx="16" fill="#ffffff"/>
  <rect x="640" y="152" width="170" height="340" rx="16" fill="#ffffff"/>

  <rect x="180" y="178" width="150" height="10" rx="5" fill="#f43f5e"/>
  <rect x="180" y="196" width="410" height="1" fill="#f43f5e" opacity="0.55"/>
  <g opacity="0.65">
    <rect x="180" y="214" width="390" height="10" rx="5" fill="#9ca3af"/>
    <rect x="180" y="232" width="420" height="10" rx="5" fill="#9ca3af"/>
    <rect x="180" y="250" width="360" height="10" rx="5" fill="#9ca3af"/>
  </g>

  <rect x="670" y="178" width="120" height="10" rx="5" fill="#f43f5e"/>
  <g opacity="0.75">
    <rect x="670" y="204" width="120" height="8" rx="4" fill="#9ca3af"/>
    <g transform="translate(670,222)">
      <circle cx="4" cy="4" r="3" fill="#f43f5e"/>
      <circle cx="14" cy="4" r="3" fill="#f43f5e"/>
      <circle cx="24" cy="4" r="3" fill="#f43f5e"/>
      <circle cx="34" cy="4" r="3" fill="#f43f5e"/>
      <circle cx="44" cy="4" r="3" fill="#f43f5e"/>
      <circle cx="54" cy="4" r="3" fill="#f43f5e"/>
      <circle cx="64" cy="4" r="3" fill="#f43f5e"/>
      <circle cx="74" cy="4" r="3" fill="#f43f5e"/>
      <circle cx="84" cy="4" r="3" fill="rgba(244,63,94,0.2)"/>
      <circle cx="94" cy="4" r="3" fill="rgba(244,63,94,0.2)"/>
    </g>
    <rect x="670" y="248" width="120" height="8" rx="4" fill="#9ca3af"/>
    <g transform="translate(670,266)">
      <circle cx="4" cy="4" r="3" fill="#f43f5e"/>
      <circle cx="14" cy="4" r="3" fill="#f43f5e"/>
      <circle cx="24" cy="4" r="3" fill="#f43f5e"/>
      <circle cx="34" cy="4" r="3" fill="#f43f5e"/>
      <circle cx="44" cy="4" r="3" fill="#f43f5e"/>
      <circle cx="54" cy="4" r="3" fill="#f43f5e"/>
      <circle cx="64" cy="4" r="3" fill="rgba(244,63,94,0.2)"/>
      <circle cx="74" cy="4" r="3" fill="rgba(244,63,94,0.2)"/>
      <circle cx="84" cy="4" r="3" fill="rgba(244,63,94,0.2)"/>
      <circle cx="94" cy="4" r="3" fill="rgba(244,63,94,0.2)"/>
    </g>
  </g>
</svg>

