<svg xmlns="http://www.w3.org/2000/svg" width="900" height="540" viewBox="0 0 900 540">
  <defs>
    <linearGradient id="bg" x1="0" y1="0" x2="1" y2="1">
      <stop offset="0" stop-color="#0b0f17"/>
      <stop offset="1" stop-color="#111827"/>
    </linearGradient>
  </defs>
  <rect width="900" height="540" fill="url(#bg)"/>
  <rect x="90" y="60" width="720" height="420" rx="22" fill="#ffffff"/>
  <rect x="150" y="96" width="420" height="14" rx="7" fill="#dc2626" opacity="0.95"/>
  <rect x="150" y="120" width="260" height="10" rx="5" fill="#6b7280" opacity="0.65"/>

  <rect x="150" y="152" width="470" height="340" rx="16" fill="#ffffff"/>
  <rect x="640" y="152" width="170" height="340" rx="16" fill="#ffffff"/>

  <rect x="180" y="178" width="150" height="10" rx="5" fill="#dc2626"/>
  <rect x="180" y="196" width="410" height="1" fill="#dc2626" opacity="0.6"/>
  <g opacity="0.65">
    <rect x="180" y="214" width="390" height="10" rx="5" fill="#9ca3af"/>
    <rect x="180" y="232" width="420" height="10" rx="5" fill="#9ca3af"/>
    <rect x="180" y="250" width="360" height="10" rx="5" fill="#9ca3af"/>
  </g>

  <rect x="670" y="178" width="100" height="10" rx="5" fill="#111827" opacity="0.75"/>
  <g opacity="0.75">
    <rect x="670" y="204" width="120" height="8" rx="4" fill="#9ca3af"/>
    <rect x="670" y="224" width="120" height="8" rx="4" fill="#9ca3af"/>
    <rect x="670" y="244" width="120" height="8" rx="4" fill="#9ca3af"/>
    <rect x="670" y="264" width="120" height="8" rx="4" fill="#9ca3af"/>
  </g>
  <g transform="translate(670,290)" opacity="0.85">
    <rect x="0" y="0" width="120" height="1" fill="#d1d5db"/>
    <rect x="0" y="20" width="120" height="1" fill="#d1d5db"/>
    <rect x="0" y="40" width="120" height="1" fill="#d1d5db"/>
    <rect x="0" y="60" width="120" height="1" fill="#d1d5db"/>
  </g>
</svg>

